<svg width="18" height="18" viewBox="0 0 18 18" fill="none" xmlns="http://www.w3.org/2000/svg">
<path d="M4.875 7.125C4.875 4.84682 6.72182 3 9 3C11.2782 3 13.125 4.84682 13.125 7.125V12C13.125 13.0606 13.125 13.591 12.7955 13.9205C12.466 14.25 11.9356 14.25 10.875 14.25H7.125C6.06434 14.25 5.53401 14.25 5.20451 13.9205C4.875 13.591 4.875 13.0606 4.875 12V7.125Z" stroke="#F08526" stroke-width="1.5"/>
<path d="M15 8.25V12.75" stroke="#F08526" stroke-width="1.5" stroke-linecap="round" stroke-linejoin="round"/>
<path d="M11.25 14.25V16.5" stroke="#F08526" stroke-width="1.5" stroke-linecap="round" stroke-linejoin="round"/>
<path d="M6.75 14.25V16.5" stroke="#F08526" stroke-width="1.5" stroke-linecap="round" stroke-linejoin="round"/>
<path d="M3 8.25V12.75" stroke="#F08526" stroke-width="1.5" stroke-linecap="round" stroke-linejoin="round"/>
<path d="M7.5 3L6.375 1.5M10.5 3L11.625 1.5" stroke="#F08526" stroke-width="1.5" stroke-linecap="round" stroke-linejoin="round"/>
<path d="M4.875 7.5H13.125" stroke="#F08526" stroke-width="1.5" stroke-linecap="round" stroke-linejoin="round"/>
</svg>
