<svg width="18" height="18" viewBox="0 0 18 18" fill="none" xmlns="http://www.w3.org/2000/svg">
<path d="M9 4.3125C9 2.8125 10.125 1.3125 11.625 1.3125C11.625 2.8125 10.5 4.3125 9 4.3125Z" fill="#F08526"/>
<path d="M9.375 6.06751C8.98882 6.06751 8.69003 5.94484 8.35605 5.80776C7.9332 5.63419 7.45406 5.4375 6.67001 5.4375C5.26676 5.4375 3 6.56209 3 9.56212C3 13.0512 5.32853 16.6875 6.82853 16.6875C7.33069 16.6875 7.78313 16.4903 8.2155 16.3019C8.61113 16.1294 8.9901 15.9643 9.375 15.9643C9.7599 15.9643 10.1389 16.1294 10.5345 16.3019C10.9669 16.4903 11.4193 16.6875 11.9215 16.6875C12.9659 16.6875 14.218 14.9244 15 12.6756C13.7845 12.1652 13.0035 10.9635 13.0035 9.5625C13.0035 8.34075 13.6527 7.52985 14.625 6.9375C13.875 5.8125 12.7601 5.4375 11.9585 5.4375C11.1745 5.4375 10.6953 5.63419 10.2724 5.80776C9.93855 5.94484 9.76118 6.06751 9.375 6.06751Z" stroke="#F08526" stroke-width="1.5" stroke-linejoin="round"/>
</svg>
