<svg width="20" height="20" viewBox="0 0 20 20" fill="none" xmlns="http://www.w3.org/2000/svg">
<path d="M18.3337 9.99984C18.3337 5.39746 14.6027 1.6665 10.0003 1.6665C5.39795 1.6665 1.66699 5.39746 1.66699 9.99984C1.66699 14.6022 5.39795 18.3332 10.0003 18.3332C14.6027 18.3332 18.3337 14.6022 18.3337 9.99984Z" stroke="#F08526" stroke-width="1.375"/>
<path d="M16.6663 4.749C15.8874 4.80514 14.8898 5.1067 14.1979 6.00215C12.9484 7.61951 11.6988 7.75447 10.8658 7.21535C9.61626 6.40667 10.6663 5.0968 9.19976 4.38496C8.24395 3.92102 8.11068 2.65855 8.64267 1.6665" stroke="#F08526" stroke-width="1.375" stroke-linejoin="round"/>
<path d="M1.66699 9.1665C2.30241 9.71825 3.19238 10.2233 4.24094 10.2233C6.40735 10.2233 6.84063 10.6373 6.84063 12.293C6.84063 13.9488 6.84063 13.9488 7.27392 15.1905C7.55575 15.9983 7.65426 16.806 7.09249 17.4998" stroke="#F08526" stroke-width="1.375" stroke-linejoin="round"/>
<path d="M18.3337 11.2104C17.5944 10.7844 16.667 10.6092 15.7282 11.2839C13.9317 12.575 12.6932 11.5052 12.1352 12.5742C11.3141 14.1481 14.2467 14.6427 11.667 18.3335" stroke="#F08526" stroke-width="1.375" stroke-linejoin="round"/>
</svg>
