<svg width="20" height="20" viewBox="0 0 20 20" fill="none" xmlns="http://www.w3.org/2000/svg">
<path d="M1.66699 4.1665L7.42784 7.43702C9.53258 8.63192 10.4681 8.63192 12.5728 7.43702L18.3337 4.1665" stroke="#F08526" stroke-width="1.375" stroke-linejoin="round"/>
<path d="M8.75033 16.2502C8.36174 16.2451 7.97268 16.2377 7.58268 16.2278C4.95893 16.1619 3.64706 16.1289 2.70446 15.1822C1.76185 14.2354 1.73461 12.9574 1.68013 10.4013C1.66262 9.57941 1.66261 8.76241 1.68013 7.94052C1.73461 5.38444 1.76184 4.1064 2.70445 3.15965C3.64706 2.21291 4.95893 2.17994 7.58268 2.11398C9.19974 2.07333 10.8009 2.07334 12.418 2.11399C15.0417 2.17995 16.3536 2.21293 17.2962 3.15967C18.2388 4.1064 18.2661 5.38445 18.3205 7.94053C18.3286 8.31892 18.3329 8.49725 18.3336 8.75016" stroke="#F08526" stroke-width="1.375" stroke-linecap="round" stroke-linejoin="round"/>
<path d="M15.833 14.1665C15.833 14.8568 15.2733 15.4165 14.583 15.4165C13.8927 15.4165 13.333 14.8568 13.333 14.1665C13.333 13.4762 13.8927 12.9165 14.583 12.9165C15.2733 12.9165 15.833 13.4762 15.833 14.1665ZM15.833 14.1665V14.5832C15.833 15.2735 16.3927 15.8332 17.083 15.8332C17.7733 15.8332 18.333 15.2735 18.333 14.5832V14.1665C18.333 12.0954 16.6541 10.4165 14.583 10.4165C12.5119 10.4165 10.833 12.0954 10.833 14.1665C10.833 16.2376 12.5119 17.9165 14.583 17.9165" stroke="#F08526" stroke-width="1.375" stroke-linecap="round" stroke-linejoin="round"/>
</svg>
