<svg width="15" height="15" viewBox="0 0 15 15" fill="none" xmlns="http://www.w3.org/2000/svg">
<path d="M5.13188 2.26019L4.79633 1.50521C4.57693 1.01157 4.46723 0.764733 4.30317 0.575842C4.09756 0.339117 3.82956 0.16495 3.52973 0.0732084C3.29049 8.19564e-08 3.02038 0 2.48017 0C1.68992 0 1.2948 5.96047e-08 0.963106 0.151908C0.572389 0.33085 0.219531 0.7194 0.0789393 1.1255C-0.0404107 1.47024 -0.00621897 1.82453 0.0621477 2.53308C0.789923 10.0751 4.92485 14.2101 12.4669 14.9379C13.1755 15.0062 13.5298 15.0404 13.8745 14.921C14.2806 14.7805 14.6691 14.4276 14.8481 14.0369C15 13.7052 15 13.3101 15 12.5198C15 11.9796 15 11.7095 14.9268 11.4703C14.835 11.1705 14.6609 10.9025 14.4241 10.6968C14.2353 10.5328 13.9885 10.423 13.4948 10.2036L12.7398 9.86813C12.2052 9.63055 11.9379 9.51172 11.6663 9.48588C11.4063 9.46113 11.1442 9.49763 10.9009 9.59238C10.6466 9.69138 10.422 9.87863 9.97246 10.2532C9.52513 10.626 9.30146 10.8124 9.02813 10.9122C8.7858 11.0008 8.46546 11.0336 8.2103 10.996C7.92238 10.9536 7.70196 10.8357 7.26105 10.6001C5.88938 9.86705 5.13294 9.11063 4.39989 7.73897C4.16428 7.29805 4.04648 7.07763 4.00406 6.78972C3.96645 6.53455 3.99923 6.21422 4.08775 5.97188C4.1876 5.69857 4.37401 5.47488 4.74682 5.0275C5.12135 4.57807 5.30861 4.35335 5.40762 4.09909C5.50237 3.85578 5.53885 3.59367 5.51412 3.33373C5.48828 3.0621 5.36948 2.7948 5.13188 2.26019Z" fill="#F08526"/>
</svg>
