<svg width="145" height="28" viewBox="0 0 145 28" fill="none" xmlns="http://www.w3.org/2000/svg">
<path d="M12.5 0L15.3064 9.67376H24.3882L17.0409 15.6525L19.8473 25.3262L12.5 19.3475L5.15268 25.3262L7.95911 15.6525L0.611794 9.67376H9.69357L12.5 0Z" fill="#F08526"/>
<path d="M42.5 0L45.3064 9.67376H54.3882L47.0409 15.6525L49.8473 25.3262L42.5 19.3475L35.1527 25.3262L37.9591 15.6525L30.6118 9.67376H39.6936L42.5 0Z" fill="#F08526"/>
<path d="M72.5 0L75.3064 9.67376H84.3882L77.0409 15.6525L79.8473 25.3262L72.5 19.3475L65.1527 25.3262L67.9591 15.6525L60.6118 9.67376H69.6936L72.5 0Z" fill="#F08526"/>
<path d="M102.5 0L105.306 9.67376H114.388L107.041 15.6525L109.847 25.3262L102.5 19.3475L95.1527 25.3262L97.9591 15.6525L90.6118 9.67376H99.6936L102.5 0Z" fill="#F08526"/>
<path d="M132.5 0L135.306 9.67376H144.388L137.041 15.6525L139.847 25.3262L132.5 19.3475L125.153 25.3262L127.959 15.6525L120.612 9.67376H129.694L132.5 0Z" fill="url(#paint0_linear_2512_5428)"/>
<defs>
<linearGradient id="paint0_linear_2512_5428" x1="132.5" y1="15" x2="128" y2="15" gradientUnits="userSpaceOnUse">
<stop stop-color="white"/>
<stop offset="1" stop-color="#FF8D28"/>
</linearGradient>
</defs>
</svg>
