<svg width="40" height="40" viewBox="0 0 40 40" fill="none" xmlns="http://www.w3.org/2000/svg">
<path d="M3.33398 20.8333C3.33398 18.9923 4.82637 17.5 6.66732 17.5C9.42873 17.5 11.6673 19.7385 11.6673 22.5V29.1667C11.6673 31.9282 9.42873 34.1667 6.66732 34.1667C4.82637 34.1667 3.33398 32.6743 3.33398 30.8333V20.8333Z" stroke="white" stroke-width="3.75" stroke-linecap="round" stroke-linejoin="round"/>
<path d="M25.7972 13.0104L25.3533 14.4438C24.9897 15.6184 24.8078 16.2057 24.9477 16.6696C25.0608 17.0448 25.3092 17.3683 25.6477 17.5811C26.066 17.8441 26.6988 17.8441 27.9645 17.8441H28.6378C32.9213 17.8441 35.063 17.8441 36.0747 19.1121C36.1902 19.2569 36.293 19.4111 36.382 19.5728C37.1602 20.9868 36.2755 22.8918 34.506 26.7018C32.8822 30.1981 32.0702 31.9463 30.5627 32.9753C30.4168 33.0748 30.2668 33.1688 30.1132 33.2568C28.526 34.1666 26.5597 34.1666 22.6267 34.1666H21.7737C17.0088 34.1666 14.6265 34.1666 13.1462 32.7324C11.666 31.2981 11.666 28.9898 11.666 24.3731V22.7504C11.666 20.3243 11.666 19.1113 12.0966 18.0009C12.5271 16.8906 13.3516 15.9777 15.0005 14.1518L21.8195 6.60085C21.9905 6.41149 22.076 6.31679 22.1515 6.25117C22.8552 5.63872 23.9413 5.70765 24.5567 6.40384C24.6227 6.47842 24.6947 6.5831 24.8387 6.79249C25.064 7.12 25.1767 7.28377 25.275 7.446C26.154 8.89847 26.42 10.6239 26.0173 12.2618C25.9723 12.4448 25.914 12.6334 25.7972 13.0104Z" stroke="white" stroke-width="3.75" stroke-linecap="round" stroke-linejoin="round"/>
</svg>
