<svg width="30" height="30" viewBox="0 0 30 30" fill="none" xmlns="http://www.w3.org/2000/svg">
<path d="M5 15C5 10.286 5 7.92894 6.46446 6.46446C7.92894 5 10.286 5 15 5C19.714 5 22.0711 5 23.5355 6.46446C25 7.92894 25 10.286 25 15C25 19.714 25 22.0711 23.5355 23.5355C22.0711 25 19.714 25 15 25C10.286 25 7.92894 25 6.46446 23.5355C5 22.0711 5 19.714 5 15Z" stroke="#141B34" stroke-width="1.5" stroke-linejoin="round"/>
<path d="M12.6562 18.75V11.25M15 11.25V9.375M15 20.625V18.75M12.6562 15H17.3438M17.3438 15C18.1204 15 18.75 15.6296 18.75 16.4062V17.3438C18.75 18.1204 18.1204 18.75 17.3438 18.75H11.25M17.3438 15C18.1204 15 18.75 14.3704 18.75 13.5938V12.6562C18.75 11.8796 18.1204 11.25 17.3438 11.25H11.25" stroke="#141B34" stroke-width="1.5" stroke-linecap="round" stroke-linejoin="round"/>
<path d="M10 2.5V5M20 2.5V5M15 2.5V5M10 25V27.5M15 25V27.5M20 25V27.5M27.5 20H25M5 10H2.5M5 20H2.5M5 15H2.5M27.5 10H25M27.5 15H25" stroke="#141B34" stroke-width="1.5" stroke-linecap="round" stroke-linejoin="round"/>
</svg>
