<svg width="30" height="30" viewBox="0 0 30 30" fill="none" xmlns="http://www.w3.org/2000/svg">
<path d="M2.50183 10.625L2.49913 17.4962C2.49752 21.6224 2.49671 23.6855 3.77819 24.9675C5.05967 26.2495 7.12276 26.2495 11.2489 26.2496L18.7502 26.2497C22.8745 26.2499 24.9365 26.25 26.2179 24.9689C27.4992 23.6877 27.4997 21.6256 27.5005 17.5015L27.5019 10.625" stroke="#141B34" stroke-width="1.5" stroke-linecap="round" stroke-linejoin="round"/>
<path d="M10.624 8.125C10.624 6.36943 10.624 5.49164 11.0453 4.86107C11.2277 4.5881 11.4621 4.35372 11.7351 4.17132C12.3656 3.75 13.2434 3.75 14.9991 3.75C16.7546 3.75 17.6324 3.75 18.2629 4.17132C18.5359 4.35372 18.7703 4.5881 18.9527 4.86107C19.3741 5.49164 19.3741 6.36943 19.3741 8.125" stroke="#141B34" stroke-width="1.5" stroke-linecap="round" stroke-linejoin="round"/>
<path d="M24.9982 8.1252L4.99926 8.125C3.6187 8.12509 2.49915 9.2446 2.49902 10.6252C2.49915 13.3864 4.73826 15.6255 7.49946 15.6257H22.4979C25.2592 15.6256 27.4982 13.3866 27.4983 10.6254C27.4982 9.24478 26.3787 8.12529 24.9982 8.1252Z" stroke="#141B34" stroke-width="1.5" stroke-linecap="round" stroke-linejoin="round"/>
<path d="M12.499 15.625V16.875C12.499 17.4563 12.499 17.7469 12.5629 17.9852C12.7363 18.6324 13.2417 19.1378 13.8887 19.3111C14.1272 19.375 14.4178 19.375 14.9991 19.375C15.5803 19.375 15.8708 19.375 16.1093 19.3111C16.7563 19.1378 17.2618 18.6324 17.4352 17.9852C17.4991 17.7469 17.4991 17.4563 17.4991 16.875V15.625" stroke="#141B34" stroke-width="1.5" stroke-linecap="round" stroke-linejoin="round"/>
</svg>
