<svg width="30" height="30" viewBox="0 0 30 30" fill="none" xmlns="http://www.w3.org/2000/svg">
<path d="M27.5 15C27.5 8.09644 21.9035 2.5 15 2.5C8.09644 2.5 2.5 8.09644 2.5 15C2.5 21.9035 8.09644 27.5 15 27.5C16.0521 27.5 17.5 27.6454 17.5 26.25C17.5 25.4887 17.104 24.9015 16.7107 24.318C16.1352 23.4644 15.5654 22.6191 16.25 21.25C17.0834 19.5834 18.4723 19.5834 20.6019 19.5834C21.6668 19.5834 22.9168 19.5834 24.375 19.375C27.0013 18.9999 27.5 17.3855 27.5 15Z" stroke="#141B34" stroke-width="1.5"/>
<path d="M8.75 18.7525L8.76085 18.7495" stroke="#141B34" stroke-width="2" stroke-linecap="round" stroke-linejoin="round"/>
<path d="M11.875 12.5C12.9105 12.5 13.75 11.6605 13.75 10.625C13.75 9.58947 12.9105 8.75 11.875 8.75C10.8395 8.75 10 9.58947 10 10.625C10 11.6605 10.8395 12.5 11.875 12.5Z" stroke="#141B34" stroke-width="1.5"/>
<path d="M20.625 13.75C21.6605 13.75 22.5 12.9105 22.5 11.875C22.5 10.8395 21.6605 10 20.625 10C19.5895 10 18.75 10.8395 18.75 11.875C18.75 12.9105 19.5895 13.75 20.625 13.75Z" stroke="#141B34" stroke-width="1.5"/>
</svg>
